<?xml version="1.0" encoding="UTF-8"?>
<svg xmlns="http://www.w3.org/2000/svg" xmlns:xlink="http://www.w3.org/1999/xlink" version="1.1" viewBox="0 0 720.7 255.7">
  <defs>
    <style>
      .cls-1 {
        isolation: isolate;
      }

      .cls-2 {
        fill: #231815;
        stroke: url(#_名称未設定グラデーション);
        stroke-linecap: round;
        stroke-miterlimit: 10;
        stroke-width: 8px;
      }
    </style>
    <linearGradient id="_名称未設定グラデーション" data-name="名称未設定グラデーション" x1="71.4" y1="117.7" x2="187" y2="117.7" gradientTransform="translate(0 255.9) scale(1 -1)" gradientUnits="userSpaceOnUse">
      <stop offset="0" stop-color="#70c6cd"/>
      <stop offset=".4" stop-color="#359ed9"/>
      <stop offset="1" stop-color="#5378bb"/>
    </linearGradient>
  </defs>
  <!-- Generator: Adobe Illustrator 28.7.1, SVG Export Plug-In . SVG Version: 1.2.0 Build 142)  -->
  <g>
    <g id="_レイヤー_1">
      <path class="cls-2" d="M129.2,81.5l35.8,18.9M129.5,100.3v-17.9M147.1,109.8v18.9M183,109.8v37.8M147.1,147.6l35.8-18.9M147.1,128.7l17.9,9.4M129.2,138.2l.3-40.5M183,109.8l-17.9-9.4M75.4,109.8l35.9-18.9M93.3,119l-16.7-8.8M129.2,119.3l-17.9-9.5M129.2,81.5l35.9,18.9M147.1,90.9v37.8M129.2,119.3l17.9-9.4M129.2,138.2l-38.3-20.5M111.3,90.9l17.9-9.4M75.4,166.5v-37.8M93.1,156.9l-16.6,8.7M93.3,138.2l17.9-9.5M75.4,109.8l35.9-18.9M93.3,100.4l35.8,18.9M111.3,128.7v-18.9M90.6,158.2l38.6-20.1M75.4,128.7v-18.9M93.3,176l35.8,18.9M128.9,193.4v-17.3M111.3,166.5v-18.9M75.4,128.7v37.8M111.3,128.7l-35.8,18.9M111.3,147.6l-17.9-9.4M129.2,138.2l-.3,40.5M75.4,166.5l17.9,9.4M183,166.5l-35.9,18.9M165.1,157.3l16.2,8.5M129.2,157.1l17.9,9.5M129.2,194.9l-35.9-18.9M111.3,185.4v-37.8M129.2,157.1l-17.9,9.4M129.2,138.2l38.3,20.5M147.1,185.4l-17.9,9.4M183,109.9v37.8M165.3,119.4l16.2-8.5M165.1,138.2l-17.9,9.5M183,166.5l-35.9,18.9M129.2,157.1l35.8,18.9M147.1,147.6v18.9M167.8,118.1l-38.6,20.1M183,147.6v18.9"/>
      <g id="PNwO9h.tif">
        <image id="Layer_0" class="cls-1" width="452" height="75" transform="translate(236.6 100.6) scale(1)" xlink:href="UniPro2-max-bold copy-1.png"/>
      </g>
    </g>
  </g>
</svg>