<?xml version="1.0" encoding="UTF-8"?>
<svg xmlns="http://www.w3.org/2000/svg" xmlns:xlink="http://www.w3.org/1999/xlink" version="1.1" viewBox="0 0 720.7 255.7">
  <defs>
    <style>
      .cls-1 {
        isolation: isolate;
      }

      .cls-2 {
        fill: #231815;
        stroke: url(#_名称未設定グラデーション);
        stroke-linecap: round;
        stroke-miterlimit: 10;
        stroke-width: 8px;
      }
    </style>
    <linearGradient id="_名称未設定グラデーション" data-name="名称未設定グラデーション" x1="10" y1="128.1" x2="253.1" y2="128.1" gradientTransform="translate(0 255.9) scale(1 -1)" gradientUnits="userSpaceOnUse">
      <stop offset="0" stop-color="#70c6cd"/>
      <stop offset=".4" stop-color="#359ed9"/>
      <stop offset="1" stop-color="#5378bb"/>
    </linearGradient>
  </defs>
  <!-- Generator: Adobe Illustrator 28.7.1, SVG Export Plug-In . SVG Version: 1.2.0 Build 142)  -->
  <g>
    <g id="_レイヤー_1">
      <path class="cls-2" d="M131.6,4l78.3,41.3M132.1,45V5.9M170.7,65.9v41.3M249,65.9v82.5M170.7,148.4l78.3-41.2M170.7,107.2l39.1,20.6M131.6,127.8l.6-88.5M249,65.9l-39.2-20.6M14.1,65.9L92.4,24.7M53.2,86l-36.4-19.2M131.6,86.6l-39.2-20.7M131.6,4l78.3,41.3M170.7,24.7v82.5M131.6,86.6l39.1-20.6M131.6,127.8l-83.7-44.7M92.4,24.7l39.2-20.6M14,189.7v-82.5M52.7,168.8l-36.2,19.1M53.2,127.8l39.2-20.7M14.1,65.9L92.4,24.7M53.2,45.3l78.3,41.3M92.4,107.2v-41.2M47.3,171.6l84.3-43.8M14.1,107.2v-41.3M53.2,210.4l78.3,41.3M131,248.4v-37.8M92.3,189.8v-41.3M14.1,107.2v82.5M92.3,107.2L14.1,148.5M92.3,148.4l-39.1-20.6M131.6,127.8l-.6,88.5M14.1,189.7l39.2,20.6M249,189.8l-78.3,41.2M209.9,169.7l35.3,18.6M131.5,169.1l39.2,20.6M131.6,251.6l-78.3-41.3M92.4,231v-82.5M131.5,169.1l-39.1,20.6M131.6,127.8l83.7,44.7M170.7,231l-39.2,20.6M249.1,66v82.5M210.4,86.9l35.4-18.7M209.9,127.8l-39.2,20.7M249,189.7l-78.3,41.3M131.6,169.1l78.3,41.2M170.7,148.5v41.2M215.8,84l-84.3,43.8M249,148.5v41.3"/>
      <g id="PNwO9h.tif">
        <image id="Layer_0" class="cls-1" width="452" height="75" transform="translate(261.2 101.2) scale(1)" xlink:href="UniPro2-max-bold copy-1.png"/>
      </g>
    </g>
  </g>
</svg>